<svg xmlns="http://www.w3.org/2000/svg" viewBox="0 0 512 512" role="img" aria-labelledby="title desc">
  <title id="title">py-destiny sticker</title>
  <desc id="desc">OmicVerse repository hex sticker for py-destiny.</desc>
  <defs>
    <linearGradient id="bg" x1="112" y1="90" x2="398" y2="430" gradientUnits="userSpaceOnUse">
      <stop offset="0" stop-color="#050706"/>
      <stop offset=".58" stop-color="#020403"/>
      <stop offset="1" stop-color="#000000"/>
    </linearGradient>
  </defs>
  <polygon points="256,34 450,146 450,368 256,480 62,368 62,146" fill="#000000" opacity=".34"/>
  <polygon points="256,22 458,139 458,373 256,490 54,373 54,139" fill="url(#bg)" stroke="#0B0F0A" stroke-width="19" stroke-linejoin="round"/>
  <polygon points="256,22 458,139 458,373 256,490 54,373 54,139" fill="none" stroke="#E8FFE0" stroke-width="12" stroke-linejoin="round"/>
  <g opacity=".22" stroke="#3FD36B" stroke-width="2.2">
    <path d="M112 166h288M100 222h312M100 278h312M112 334h288"/>
    <path d="M152 126v236M204 104v274M256 96v286M308 104v274M360 126v236"/>
  </g>
  <g id="motif">
    <ellipse cx="204" cy="236" rx="88" ry="118" fill="#32D74B" opacity=".25"/>
    <ellipse cx="304" cy="236" rx="88" ry="118" fill="#00C7BE" opacity=".24"/>
    <path d="M142 320c56-120 162-120 228 0" fill="none" stroke="#FFFFFF" stroke-width="7" stroke-linecap="round"/>
    <path d="M160 282c68-70 128-68 196 0" fill="none" stroke="#FFD60A" stroke-width="7" stroke-linecap="round"/>
    <circle cx="184" cy="214" r="11" fill="#32D74B"/><circle cx="260" cy="188" r="11" fill="#FFD60A"/><circle cx="330" cy="230" r="11" fill="#FF6961"/>
  </g>
  <path id="label" d="M306.12,383.70 L310.43,391.17 L305.88,393.80 L294.54,374.14 L299.08,371.52 L300.29,373.60 Q300.51,371.81 301.31,370.56 Q302.12,369.31 303.61,368.45 Q306.24,366.93 309.13,368.05 Q312.03,369.16 313.93,372.45 Q315.83,375.74 315.35,378.82 Q314.87,381.88 312.24,383.40 Q310.75,384.26 309.26,384.33 Q307.78,384.40 306.12,383.70 Z M303.82,372.73 Q302.36,373.58 302.20,375.10 Q302.03,376.63 303.20,378.65 Q304.37,380.67 305.77,381.29 Q307.17,381.91 308.64,381.07 Q310.10,380.23 310.25,378.72 Q310.40,377.20 309.23,375.17 Q308.06,373.13 306.67,372.52 Q305.28,371.89 303.82,372.73 Z M311.30,364.46 L315.85,361.84 L325.26,369.29 L322.94,357.75 L327.48,355.12 L330.49,374.16 Q330.97,377.06 330.31,378.70 Q329.66,380.34 327.69,381.48 L325.06,383.00 L323.33,380.01 L324.76,379.19 Q325.91,378.52 326.22,377.85 Q326.54,377.18 326.28,376.05 L326.18,375.58 L311.30,364.46 Z M332.19,358.93 L340.17,354.32 L342.31,358.02 L334.33,362.63 L332.19,358.93 Z M351.84,343.84 L347.43,336.21 L352.01,333.57 L363.43,353.35 L358.86,355.99 L357.67,353.93 Q357.45,355.73 356.66,356.98 Q355.86,358.21 354.38,359.07 Q351.75,360.59 348.85,359.48 Q345.95,358.36 344.05,355.07 Q342.15,351.77 342.63,348.71 Q343.12,345.64 345.75,344.12 Q347.22,343.27 348.70,343.20 Q350.18,343.14 351.84,343.84 Z M354.16,354.79 Q355.62,353.94 355.78,352.43 Q355.93,350.92 354.75,348.89 Q353.58,346.85 352.19,346.23 Q350.81,345.60 349.34,346.45 Q347.90,347.29 347.74,348.80 Q347.59,350.31 348.76,352.34 Q349.94,354.38 351.33,355.00 Q352.71,355.63 354.16,354.79 Z M377.88,335.47 L378.63,336.76 L367.99,342.90 Q369.08,344.41 370.54,344.64 Q371.99,344.87 373.77,343.84 Q375.21,343.01 376.46,341.72 Q377.73,340.42 378.82,338.64 L380.84,342.14 Q379.58,343.69 378.15,344.93 Q376.71,346.18 375.10,347.11 Q371.23,349.34 367.96,348.61 Q364.68,347.88 362.63,344.34 Q360.62,340.85 361.58,337.65 Q362.53,334.43 366.22,332.30 Q369.57,330.37 372.75,331.23 Q375.93,332.08 377.88,335.47 Z M372.33,336.65 Q371.58,335.36 370.37,335.00 Q369.15,334.64 367.93,335.34 Q366.61,336.11 366.21,337.33 Q365.82,338.55 366.42,340.07 L372.33,336.65 Z M388.62,320.41 L390.62,323.87 Q388.81,324.11 387.27,324.59 Q385.73,325.07 384.52,325.76 Q383.23,326.51 382.78,327.20 Q382.34,327.89 382.73,328.56 Q383.05,329.11 383.69,329.13 Q384.34,329.14 385.65,328.57 L386.52,328.22 Q390.27,326.65 392.06,326.97 Q393.86,327.29 395.12,329.47 Q396.43,331.74 395.41,333.86 Q394.40,335.97 391.07,337.89 Q389.66,338.70 388.02,339.35 Q386.38,340.00 384.54,340.47 L382.54,337.01 Q384.28,336.89 385.90,336.40 Q387.53,335.90 389.00,335.05 Q390.34,334.28 390.80,333.52 Q391.26,332.76 390.84,332.03 Q390.49,331.42 389.85,331.39 Q389.22,331.36 387.73,332.00 L386.87,332.36 Q383.61,333.73 381.80,333.41 Q379.98,333.08 378.77,330.98 Q377.47,328.72 378.39,326.74 Q379.31,324.75 382.51,322.90 Q383.77,322.17 385.26,321.56 Q386.76,320.95 388.62,320.41 Z M395.37,310.53 L397.71,314.58 L402.40,311.87 L404.28,315.12 L399.59,317.83 L403.07,323.87 Q403.65,324.86 404.24,324.98 Q404.84,325.11 406.01,324.43 L408.35,323.08 L410.23,326.33 L406.32,328.59 Q403.63,330.14 401.85,329.67 Q400.08,329.19 398.52,326.50 L395.04,320.46 L392.77,321.77 L390.89,318.51 L393.16,317.20 L390.83,313.16 L395.37,310.53 Z M405.19,310.26 L409.73,307.63 L417.95,321.87 L413.41,324.50 L405.19,310.26 Z M401.98,304.72 L406.53,302.09 L408.68,305.80 L404.13,308.43 L401.98,304.72 Z M431.64,302.41 L436.64,311.08 L432.07,313.73 L431.25,312.31 L428.23,307.09 Q427.17,305.25 426.69,304.59 Q426.20,303.94 425.81,303.73 Q425.28,303.44 424.68,303.45 Q424.08,303.47 423.49,303.81 Q422.07,304.63 421.89,306.20 Q421.71,307.77 422.83,309.71 L426.88,316.72 L422.33,319.35 L414.11,305.11 L418.66,302.48 L419.86,304.56 Q420.17,302.73 420.99,301.47 Q421.81,300.21 423.20,299.40 Q425.67,297.98 427.82,298.75 Q429.97,299.53 431.64,302.41 Z M430.77,295.49 L435.33,292.86 L444.73,300.31 L442.41,288.77 L446.96,286.14 L449.97,305.19 Q450.44,308.08 449.78,309.72 Q449.13,311.36 447.16,312.50 L444.53,314.02 L442.80,311.03 L444.23,310.21 Q445.38,309.55 445.69,308.87 Q446.01,308.20 445.75,307.08 L445.66,306.61 L430.77,295.49 Z" fill="#FFFFFF"/>
</svg>
